<svg width="0" height="0" class="hidden">
  <symbol fill="none" xmlns="http://www.w3.org/2000/svg" viewBox="0 0 24 24" id="ic-biker-join">
    <path fill-rule="evenodd" clip-rule="evenodd" d="M2.00256 16C2.00256 9.37258 7.37515 4 14.0026 4C18.4208 4 22.0026 7.58172 22.0026 12C22.0026 16.4183 18.4208 20 14.0026 20H4.00256C2.89799 20 2.00256 19.1046 2.00256 18V16ZM14.0026 18H4.00256V16C4.00256 15.6625 4.01928 15.3289 4.05194 15H10.4556C12.4131 15 14 13.4131 14 11.4556C14 10.1347 13.2655 8.9234 12.0942 8.31275L9.6063 7.01569C10.9331 6.36521 12.4252 6 14.0026 6C17.3163 6 20.0026 8.68629 20.0026 12C20.0026 15.3137 17.3163 18 14.0026 18ZM4.46036 13H10.4556C11.3086 13 12 12.3086 12 11.4556C12 10.8801 11.6799 10.3523 11.1696 10.0862L7.66889 8.2611C6.1807 9.48051 5.05061 11.1207 4.46036 13Z" fill="#fff"></path>
  </symbol>
  <symbol xmlns="http://www.w3.org/2000/svg" viewBox="0 0 24 24" id="ic-driver">
    <g fill="none" fill-rule="evenodd">
      <g fill="#FFF">
        <g>
          <g>
            <g>
              <g>
                <g>
                  <g>
                    <path d="M8.482 0l8.947 8.947-8.944 9.024-1.532-1.519 6.33-6.387H0V7.909h13.34L6.957 1.525 8.482 0z" transform="translate(-1218.000000, -437.000000) translate(0.000000, 60.000000) translate(762.000000, 92.000000) translate(32.000000, 197.000000) translate(240.000000, 72.000000) translate(196.000000, 28.000000) rotate(90.000000) translate(-196.000000, -28.000000) translate(184.000000, 16.000000) translate(3.000000, 3.000000)"></path>
                  </g>
                </g>
              </g>
            </g>
          </g>
        </g>
      </g>
    </g>
  </symbol>
  <symbol xmlns="http://www.w3.org/2000/svg" viewBox="0 0 24 24" id="ic-driver-join">
    <g fill="none" fill-rule="evenodd">
      <g fill="#FFF">
        <g>
          <g>
            <g>
              <g>
                <g>
                  <path fill-opacity="0" d="M0 0H24V24H0z" transform="translate(-978.000000, -437.000000) translate(0.000000, 60.000000) translate(762.000000, 92.000000) translate(32.000000, 197.000000) translate(0.000000, 72.000000) translate(184.000000, 16.000000)"></path>
                  <g>
                    <path d="M10.25 0l.977.007.604.012.561.018.52.023.48.03.65.052.387.04.18.022.338.048.305.051.276.056.246.059.22.062.193.066.17.068.148.072c.045.024.088.048.127.073l.107.076.047.039.082.079.066.08c.01.014.02.027.028.041l.046.083.02.041.03.084.02.085.021.062c.024.049.056.113.065.193l.036.116.156.458.217.586.261.672.288.712.199.476 1.811-.259.229 1.732-.229.046c-.144.03-.288.049-.433.065l-.431.045.213.326c.394.63.795 1.437.912 2.442l.024.279.087 5.682H18.75V9.333c0-.787-.34-1.411-.884-2.17l-.316-.43-.084-.086c-.031-.036-.066-.079-.102-.132-2.134.214-4.464.318-7.114.318-2.642 0-4.964-.103-7.092-.316l-.054.119c-.023.04-.052.082-.093.123l-.307.407c-.533.722-.89 1.33-.946 2.051l-.008.2V15H0V9.333C0 8.045.512 7.09 1.124 6.268l-.19-.02c-.145-.014-.289-.028-.433-.05l-.217-.037-.229-.046.231-1.732 1.812.259.226-.539.147-.368.208-.537.25-.67.417-1.191c.022-.046.046-.094.075-.145l.038-.061.045-.063.053-.064.1-.097.083-.065.097-.065.113-.064.13-.064.15-.063.172-.062.193-.06.218-.057.244-.055.132-.027.285-.05.316-.048.17-.023.363-.042.398-.038.433-.033.471-.03.51-.023.55-.018.593-.013.637-.006L10.25 0zM15 12.75c.866 0 1.357.57 1.412 1.142l.005.108v1h-1.75v-.5H5.75v.5H4v-1c0-.586.388-1.177 1.25-1.244l.167-.006H15zM2.732 8.976l2.495.132-.091 1.747-2.497-.132.093-1.747zm14.87-.041l.093 1.747-2.497.132-.093-1.747 2.497-.132zm-7.359-7.102c-.226-.006-.445-.01-.657-.012h-.617l-.575.011-.535.02-.494.028-.231.016-.631.056-.368.042-.325.044-.408.067-.31.062-.152.037-.316.921-.192.543-.223.587c-.079.2-.163.403-.251.605 4.182.298 8.332.299 12.666-.001l-.114-.258-.222-.516-.207-.503-.095-.24-.17-.446-.137-.386c-.02-.058-.037-.113-.053-.164-.042-.033-.074-.076-.096-.124l-.195-.043-.248-.044-.143-.022-.322-.045-.37-.043-.635-.06-.475-.037-.513-.031-.548-.027-.58-.02-.612-.013-.646-.004z" transform="translate(-978.000000, -437.000000) translate(0.000000, 60.000000) translate(762.000000, 92.000000) translate(32.000000, 197.000000) translate(0.000000, 72.000000) translate(184.000000, 16.000000) translate(1.750000, 4.500000)"></path>
                  </g>
                </g>
              </g>
            </g>
          </g>
        </g>
      </g>
    </g>
  </symbol>
  <symbol xmlns="http://www.w3.org/2000/svg" viewBox="0 0 24 24" id="ic-passenger-download">
    <g fill="none" fill-rule="evenodd">
      <g fill="#000">
        <g>
          <g>
            <g>
              <g>
                <g>
                  <g>
                    <path d="M8.482 0l8.947 8.947-8.944 9.024-1.532-1.519 6.33-6.387H0V7.909h13.34L6.957 1.525 8.482 0z" transform="translate(-1218.000000, -365.000000) translate(0.000000, 60.000000) translate(762.000000, 92.000000) translate(32.000000, 197.000000) translate(240.000000, 0.000000) translate(196.000000, 28.000000) rotate(90.000000) translate(-196.000000, -28.000000) translate(184.000000, 16.000000) translate(3.000000, 3.000000)"></path>
                  </g>
                </g>
              </g>
            </g>
          </g>
        </g>
      </g>
    </g>
  </symbol>
  <symbol xmlns="http://www.w3.org/2000/svg" viewBox="0 0 24 24" id="ic-pwa">
    <g fill="none" fill-rule="evenodd">
      <g>
        <g>
          <g>
            <g>
              <g>
                <path fill="#FFF" fill-opacity="0" d="M0 0H24V24H0z" transform="translate(-978.000000, -365.000000) translate(0.000000, 60.000000) translate(762.000000, 92.000000) translate(32.000000, 197.000000) translate(184.000000, 16.000000)"></path>
                <path fill="#000" d="M3.544 7.5c.423.001.838.064 1.236.222.317.126.609.303.846.565l.12.14.227.293c.03.037.033.075.018.124-.104.334-.205.67-.306 1.004l-.436 1.434-.47 1.542c-.04.131-.077.263-.12.393-.008.022-.032.048-.053.054-.227.07-.46.114-.695.12-.568.012-1.135.014-1.703.02-.056 0-.068 0-.07.04V16.5H0v-9h3.544zm17.016.006c.015.03.026.051.034.074l.487 1.272c.137.362.272.725.41 1.086l.422 1.094.545 1.437.325.85.5 1.303c.146.383.29.768.438 1.15.091.24.186.478.279.716v.01c-.826 0-1.653 0-2.48.002-.044 0-.062-.014-.076-.055l-.521-1.44c-.044-.12-.044-.12-.171-.12h-3.15c.026-.067.048-.129.073-.19l.309-.769.299-.749c.014-.037.04-.035.07-.035h1.97l-.093-.25-.438-1.216c-.137-.38-.276-.758-.412-1.138-.009-.025-.009-.06.001-.086.118-.303.238-.606.359-.907.161-.404.324-.806.486-1.21l.307-.768.012-.027.015-.034zM16.713 7.5l2.374.001.028.004-.195.474c-.13.323-.26.647-.393.97l-.58 1.412-.616 1.503c-.191.47-.38.94-.572 1.41l-.572 1.391c-.174.427-.347.855-.522 1.282-.07.172-.143.342-.213.514-.013.031-.03.038-.061.038h-2.32c-.032 0-.047-.01-.057-.04-.129-.415-.259-.83-.39-1.243l-.475-1.501-.313-.982c-.152-.475-.305-.951-.468-1.43l-1.731 5.196H7.294c-.041 0-.065-.01-.087-.047-.23-.392-.463-.783-.695-1.174-.163-.276-.325-.552-.49-.827-.023-.04-.029-.077-.013-.123.125-.373.248-.748.372-1.122l.32-.973.502-1.521.017-.04 1.353 2.643.115-.347.313-.946.384-1.17.48-1.454.486-1.47c.043-.129.087-.258.128-.388.01-.028.022-.04.054-.04.598.001 1.197.002 1.795 0 .041 0 .048.021.057.05l.354 1.156.322 1.047.318 1.037.304.984.464 1.504.012.032c.029-.062.055-.115.078-.17l.51-1.18.536-1.242.505-1.166c.098-.226.195-.454.294-.68l.389-.89c.064-.146.126-.294.188-.44.01-.026.02-.042.054-.042zM2.203 9.246c-.052 0-.063 0-.065.037v2.38l.042.002c.261 0 .522.003.783 0 .21-.004.419-.02.623-.085.315-.1.526-.316.62-.647.1-.343.105-.691-.026-1.03-.108-.28-.298-.468-.568-.56-.195-.067-.397-.092-.6-.095-.27-.004-.54-.001-.809-.002z" transform="translate(-978.000000, -365.000000) translate(0.000000, 60.000000) translate(762.000000, 92.000000) translate(32.000000, 197.000000) translate(184.000000, 16.000000)"></path>
              </g>
            </g>
          </g>
        </g>
      </g>
    </g>
  </symbol>
</svg>